<svg xmlns="http://www.w3.org/2000/svg" xmlns:xlink="http://www.w3.org/1999/xlink" width="500" zoomAndPan="magnify" viewBox="0 0 375 374.999991" height="500" preserveAspectRatio="xMidYMid meet" version="1.0"><defs><g/></defs><rect x="-37.5" width="450" fill="#ffffff" y="-37.499999" height="449.999989" fill-opacity="1"/><rect x="-37.5" width="450" fill="#004aad" y="-37.499999" height="449.999989" fill-opacity="1"/><path stroke-linecap="butt" transform="matrix(0.75, 0, 0, 0.75, 59.814445, 121.016961)" fill="none" stroke-linejoin="miter" d="M 12.731783 55.019056 C 10.716158 55.019056 8.783866 54.696139 6.945324 54.050306 C 5.101574 53.388847 3.591157 52.399264 2.414074 51.076347 C 1.252616 49.75343 0.669282 48.107597 0.669282 46.144055 C 0.669282 44.196138 1.252616 42.571138 2.414074 41.263847 C 3.591157 39.94093 5.101574 38.94093 6.945324 38.263846 C 8.783866 37.581555 10.716158 37.243013 12.731783 37.243013 C 14.716158 37.243013 16.627617 37.581555 18.471367 38.263846 C 20.330742 38.94093 21.846367 39.94093 23.028659 41.263847 C 24.226575 42.571138 24.825534 44.196138 24.825534 46.144055 C 24.825534 48.107597 24.226575 49.75343 23.028659 51.076347 C 21.846367 52.399264 20.330742 53.388847 18.471367 54.050306 C 16.627617 54.696139 14.716158 55.019056 12.731783 55.019056 Z M 19.544284 112.998226 L 7.476574 112.998226 C 6.013033 112.998226 5.278658 112.26906 5.278658 110.800309 L 5.278658 63.487806 C 10.622408 64.576348 14.700533 66.909682 17.502617 70.482598 C 20.330742 74.060724 21.7422 78.680516 21.7422 84.341974 L 21.7422 110.800309 C 21.7422 112.26906 21.007825 112.998226 19.544284 112.998226 Z M 60.393245 112.998226 L 31.393243 112.998226 C 30.158868 112.998226 29.539076 112.524268 29.539076 111.58156 C 29.539076 111.170101 29.684909 110.763851 29.971368 110.373226 L 53.585952 77.107599 L 32.492201 77.107599 C 31.023451 77.107599 30.294284 76.373224 30.294284 74.909682 L 30.294284 66.784682 C 30.294284 65.32114 31.023451 64.586765 32.492201 64.586765 L 75.648454 64.586765 C 76.898454 64.586765 77.523454 65.060723 77.523454 66.00864 C 77.523454 66.399265 77.372412 66.805515 77.070329 67.211765 L 55.570328 99.946142 L 80.153663 99.946142 C 79.419287 102.753434 78.273454 105.128434 76.721371 107.076351 C 75.164079 109.003434 73.059912 110.482601 70.393245 111.498226 C 67.747412 112.498226 64.419286 112.998226 60.393245 112.998226 Z M 95.518247 55.019056 C 93.502622 55.019056 91.57033 54.696139 89.731788 54.050306 C 87.888038 53.388847 86.377621 52.399264 85.200538 51.076347 C 84.039079 49.75343 83.455746 48.107597 83.455746 46.144055 C 83.455746 44.196138 84.039079 42.571138 85.200538 41.263847 C 86.377621 39.94093 87.888038 38.94093 89.731788 38.263846 C 91.57033 37.581555 93.502622 37.243013 95.518247 37.243013 C 97.502622 37.243013 99.41408 37.581555 101.257831 38.263846 C 103.117206 38.94093 104.632831 39.94093 105.815123 41.263847 C 107.013039 42.571138 107.611998 44.196138 107.611998 46.144055 C 107.611998 48.107597 107.013039 49.75343 105.815123 51.076347 C 104.632831 52.399264 103.117206 53.388847 101.257831 54.050306 C 99.41408 54.696139 97.502622 55.019056 95.518247 55.019056 Z M 102.330747 112.998226 L 90.268246 112.998226 C 88.799496 112.998226 88.07033 112.26906 88.07033 110.800309 L 88.07033 63.487806 C 93.408872 64.576348 97.486997 66.909682 100.28908 70.482598 C 103.117206 74.060724 104.528664 78.680516 104.528664 84.341974 L 104.528664 110.800309 C 104.528664 112.26906 103.794289 112.998226 102.330747 112.998226 Z M 116.830748 38.341971 L 155.700542 38.341971 C 157.169293 38.341971 157.898459 39.076346 157.898459 40.539888 L 157.898459 51.076347 C 157.898459 52.539889 157.169293 53.274264 155.700542 53.274264 L 131.091166 53.274264 L 131.091166 66.998223 L 154.601584 66.998223 C 156.070334 66.998223 156.799501 67.732598 156.799501 69.19614 L 156.799501 79.732599 C 156.799501 81.196141 156.070334 81.930516 154.601584 81.930516 L 150.851584 81.930516 C 145.700542 81.930516 141.450542 80.956558 138.091166 79.008641 C 134.747416 77.045099 132.414083 74.487807 131.091166 71.341974 L 131.091166 110.800309 C 131.091166 112.26906 130.361999 112.998226 128.893249 112.998226 L 116.830748 112.998226 C 115.367206 112.998226 114.632831 112.26906 114.632831 110.800309 L 114.632831 75.123224 C 114.632831 69.368015 115.742207 64.638848 117.955748 60.940931 C 120.174498 57.222181 123.070332 54.670097 126.643249 53.274264 L 116.830748 53.274264 C 115.367206 53.274264 114.632831 52.539889 114.632831 51.076347 L 114.632831 40.539888 C 114.632831 39.076346 115.367206 38.341971 116.830748 38.341971 Z M 173.257835 55.019056 C 171.237002 55.019056 169.30471 54.696139 167.466168 54.050306 C 165.627626 53.388847 164.11721 52.399264 162.934918 51.076347 C 161.77346 49.75343 161.195334 48.107597 161.195334 46.144055 C 161.195334 44.196138 161.77346 42.571138 162.934918 41.263847 C 164.11721 39.94093 165.627626 38.94093 167.466168 38.263846 C 169.30471 37.581555 171.237002 37.243013 173.257835 37.243013 C 175.24221 37.243013 177.153669 37.581555 178.992211 38.263846 C 180.851586 38.94093 182.372419 39.94093 183.549503 41.263847 C 184.747419 42.571138 185.346378 44.196138 185.346378 46.144055 C 185.346378 48.107597 184.747419 49.75343 183.549503 51.076347 C 182.372419 52.399264 180.851586 53.388847 178.992211 54.050306 C 177.153669 54.696139 175.24221 55.019056 173.257835 55.019056 Z M 180.065127 112.998226 L 168.002627 112.998226 C 166.539085 112.998226 165.80471 112.26906 165.80471 110.800309 L 165.80471 63.487806 C 171.14846 64.576348 175.221377 66.909682 178.028669 70.482598 C 180.851586 74.060724 182.263044 78.680516 182.263044 84.341974 L 182.263044 110.800309 C 182.263044 112.26906 181.528669 112.998226 180.065127 112.998226 Z M 223.330755 62.815931 C 227.658881 62.815931 231.148464 63.748223 233.815131 65.607598 C 236.492214 67.44614 238.450548 70.029473 239.684923 73.35239 C 240.934923 76.659682 241.559923 80.503432 241.559923 84.878433 L 241.559923 110.800309 C 241.559923 112.26906 240.825548 112.998226 239.362006 112.998226 L 227.273464 112.998226 C 225.804714 112.998226 225.075547 112.26906 225.075547 110.800309 L 225.075547 84.878433 C 225.075547 82.039891 224.492214 79.847182 223.330755 78.310724 C 222.19013 76.774266 220.320338 76.008641 217.726588 76.008641 C 215.388046 76.008641 213.362005 76.862807 211.643254 78.581557 C 209.945338 80.295099 208.934921 82.675308 208.617213 85.711766 L 208.617213 110.800309 C 208.617213 112.26906 207.882838 112.998226 206.414087 112.998226 L 194.351587 112.998226 C 192.888045 112.998226 192.15367 112.26906 192.15367 110.800309 L 192.15367 63.487806 C 195.408878 64.149265 198.195337 65.284681 200.518254 66.894057 C 202.841171 68.503432 204.684921 70.529473 206.039087 72.97739 C 208.523463 69.279473 211.231796 66.659682 214.164088 65.123223 C 217.09638 63.586765 220.148463 62.815931 223.330755 62.815931 Z M 290.075551 69.19614 L 290.075551 30.649263 C 295.419302 31.737804 299.502635 34.071138 302.325552 37.644055 C 305.148469 41.22218 306.559927 45.841972 306.559927 51.503431 L 306.559927 114.097185 C 299.820344 114.097185 295.11201 111.30031 292.434926 105.706559 C 290.325551 108.550309 287.643259 110.774268 284.393259 112.383643 C 281.158884 113.972185 277.528675 114.76906 273.507842 114.76906 C 269.95055 114.76906 266.690133 114.133643 263.721383 112.868018 C 260.757841 111.597185 258.200549 109.810726 256.054716 107.503434 C 253.929716 105.201351 252.278674 102.456559 251.096382 99.274267 C 249.934924 96.091975 249.356799 92.581558 249.356799 88.737808 C 249.356799 84.935724 249.934924 81.446141 251.096382 78.284682 C 252.278674 75.10239 253.929716 72.362807 256.054716 70.055515 C 258.200549 67.748223 260.757841 65.972182 263.721383 64.722181 C 266.690133 63.451348 269.95055 62.815931 273.507842 62.815931 C 276.867217 62.815931 279.950551 63.373223 282.757842 64.47739 C 285.559926 65.57114 288.002634 67.144057 290.075551 69.19614 Z M 278.549509 101.581559 C 280.778676 101.581559 282.763051 101.0451 284.497426 99.972184 C 286.247426 98.883642 287.617218 97.378434 288.601593 95.466975 C 289.58076 93.539892 290.075551 91.331558 290.075551 88.847183 C 290.075551 86.362808 289.58076 84.164891 288.601593 82.253433 C 287.617218 80.321141 286.247426 78.821141 284.497426 77.748224 C 282.763051 76.659682 280.778676 76.112807 278.549509 76.112807 C 276.315134 76.112807 274.330759 76.659682 272.596383 77.748224 C 270.862008 78.821141 269.497425 80.321141 268.492217 82.253433 C 267.51305 84.164891 267.018258 86.362808 267.018258 88.847183 C 267.018258 91.331558 267.51305 93.539892 268.492217 95.466975 C 269.497425 97.378434 270.862008 98.883642 272.596383 99.972184 C 274.330759 101.0451 276.315134 101.581559 278.549509 101.581559 Z M 278.549509 101.581559 " stroke="#fe3130" stroke-width="26.077974" stroke-opacity="1" stroke-miterlimit="4"/><g fill="#ffffff" fill-opacity="1"><g transform="translate(59.814445, 205.766955)"><g><path d="M 9.546875 -43.484375 C 8.035156 -43.484375 6.585938 -43.726562 5.203125 -44.21875 C 3.816406 -44.707031 2.6875 -45.445312 1.8125 -46.4375 C 0.9375 -47.425781 0.5 -48.660156 0.5 -50.140625 C 0.5 -51.597656 0.9375 -52.820312 1.8125 -53.8125 C 2.6875 -54.800781 3.816406 -55.546875 5.203125 -56.046875 C 6.585938 -56.554688 8.035156 -56.8125 9.546875 -56.8125 C 11.035156 -56.8125 12.472656 -56.554688 13.859375 -56.046875 C 15.242188 -55.546875 16.378906 -54.800781 17.265625 -53.8125 C 18.160156 -52.820312 18.609375 -51.597656 18.609375 -50.140625 C 18.609375 -48.660156 18.160156 -47.425781 17.265625 -46.4375 C 16.378906 -45.445312 15.242188 -44.707031 13.859375 -44.21875 C 12.472656 -43.726562 11.035156 -43.484375 9.546875 -43.484375 Z M 14.65625 0 L 5.59375 0 C 4.5 0 3.953125 -0.546875 3.953125 -1.640625 L 3.953125 -37.140625 C 7.960938 -36.316406 11.019531 -34.566406 13.125 -31.890625 C 15.238281 -29.210938 16.296875 -25.742188 16.296875 -21.484375 L 16.296875 -1.640625 C 16.296875 -0.546875 15.75 0 14.65625 0 Z M 14.65625 0 "/></g></g></g><g fill="#ffffff" fill-opacity="1"><g transform="translate(79.577909, 205.766955)"><g><path d="M 25.53125 0 L 3.78125 0 C 2.851562 0 2.390625 -0.359375 2.390625 -1.078125 C 2.390625 -1.367188 2.5 -1.664062 2.71875 -1.96875 L 20.421875 -26.921875 L 4.609375 -26.921875 C 3.515625 -26.921875 2.96875 -27.472656 2.96875 -28.578125 L 2.96875 -34.671875 C 2.96875 -35.765625 3.515625 -36.3125 4.609375 -36.3125 L 36.96875 -36.3125 C 37.90625 -36.3125 38.375 -35.957031 38.375 -35.25 C 38.375 -34.945312 38.265625 -34.644531 38.046875 -34.34375 L 21.90625 -9.796875 L 40.34375 -9.796875 C 39.800781 -7.679688 38.945312 -5.894531 37.78125 -4.4375 C 36.613281 -2.988281 35.035156 -1.882812 33.046875 -1.125 C 31.054688 -0.375 28.550781 0 25.53125 0 Z M 25.53125 0 "/></g></g></g><g fill="#ffffff" fill-opacity="1"><g transform="translate(121.904647, 205.766955)"><g><path d="M 9.546875 -43.484375 C 8.035156 -43.484375 6.585938 -43.726562 5.203125 -44.21875 C 3.816406 -44.707031 2.6875 -45.445312 1.8125 -46.4375 C 0.9375 -47.425781 0.5 -48.660156 0.5 -50.140625 C 0.5 -51.597656 0.9375 -52.820312 1.8125 -53.8125 C 2.6875 -54.800781 3.816406 -55.546875 5.203125 -56.046875 C 6.585938 -56.554688 8.035156 -56.8125 9.546875 -56.8125 C 11.035156 -56.8125 12.472656 -56.554688 13.859375 -56.046875 C 15.242188 -55.546875 16.378906 -54.800781 17.265625 -53.8125 C 18.160156 -52.820312 18.609375 -51.597656 18.609375 -50.140625 C 18.609375 -48.660156 18.160156 -47.425781 17.265625 -46.4375 C 16.378906 -45.445312 15.242188 -44.707031 13.859375 -44.21875 C 12.472656 -43.726562 11.035156 -43.484375 9.546875 -43.484375 Z M 14.65625 0 L 5.59375 0 C 4.5 0 3.953125 -0.546875 3.953125 -1.640625 L 3.953125 -37.140625 C 7.960938 -36.316406 11.019531 -34.566406 13.125 -31.890625 C 15.238281 -29.210938 16.296875 -25.742188 16.296875 -21.484375 L 16.296875 -1.640625 C 16.296875 -0.546875 15.75 0 14.65625 0 Z M 14.65625 0 "/></g></g></g><g fill="#ffffff" fill-opacity="1"><g transform="translate(141.668112, 205.766955)"><g><path d="M 5.765625 -56 L 34.90625 -56 C 36.007812 -56 36.5625 -55.445312 36.5625 -54.34375 L 36.5625 -46.4375 C 36.5625 -45.34375 36.007812 -44.796875 34.90625 -44.796875 L 16.46875 -44.796875 L 16.46875 -34.5 L 34.09375 -34.5 C 35.1875 -34.5 35.734375 -33.953125 35.734375 -32.859375 L 35.734375 -24.953125 C 35.734375 -23.847656 35.1875 -23.296875 34.09375 -23.296875 L 31.296875 -23.296875 C 27.421875 -23.296875 24.226562 -24.03125 21.71875 -25.5 C 19.207031 -26.96875 17.457031 -28.882812 16.46875 -31.25 L 16.46875 -1.640625 C 16.46875 -0.546875 15.921875 0 14.828125 0 L 5.765625 0 C 4.660156 0 4.109375 -0.546875 4.109375 -1.640625 L 4.109375 -28.40625 C 4.109375 -32.71875 4.9375 -36.265625 6.59375 -39.046875 C 8.257812 -41.835938 10.441406 -43.753906 13.140625 -44.796875 L 5.765625 -44.796875 C 4.660156 -44.796875 4.109375 -45.34375 4.109375 -46.4375 L 4.109375 -54.34375 C 4.109375 -55.445312 4.660156 -56 5.765625 -56 Z M 5.765625 -56 "/></g></g></g><g fill="#ffffff" fill-opacity="1"><g transform="translate(180.206855, 205.766955)"><g><path d="M 9.546875 -43.484375 C 8.035156 -43.484375 6.585938 -43.726562 5.203125 -44.21875 C 3.816406 -44.707031 2.6875 -45.445312 1.8125 -46.4375 C 0.9375 -47.425781 0.5 -48.660156 0.5 -50.140625 C 0.5 -51.597656 0.9375 -52.820312 1.8125 -53.8125 C 2.6875 -54.800781 3.816406 -55.546875 5.203125 -56.046875 C 6.585938 -56.554688 8.035156 -56.8125 9.546875 -56.8125 C 11.035156 -56.8125 12.472656 -56.554688 13.859375 -56.046875 C 15.242188 -55.546875 16.378906 -54.800781 17.265625 -53.8125 C 18.160156 -52.820312 18.609375 -51.597656 18.609375 -50.140625 C 18.609375 -48.660156 18.160156 -47.425781 17.265625 -46.4375 C 16.378906 -45.445312 15.242188 -44.707031 13.859375 -44.21875 C 12.472656 -43.726562 11.035156 -43.484375 9.546875 -43.484375 Z M 14.65625 0 L 5.59375 0 C 4.5 0 3.953125 -0.546875 3.953125 -1.640625 L 3.953125 -37.140625 C 7.960938 -36.316406 11.019531 -34.566406 13.125 -31.890625 C 15.238281 -29.210938 16.296875 -25.742188 16.296875 -21.484375 L 16.296875 -1.640625 C 16.296875 -0.546875 15.75 0 14.65625 0 Z M 14.65625 0 "/></g></g></g><g fill="#ffffff" fill-opacity="1"><g transform="translate(199.97032, 205.766955)"><g><path d="M 27.34375 -37.625 C 30.582031 -37.625 33.203125 -36.929688 35.203125 -35.546875 C 37.203125 -34.160156 38.664062 -32.222656 39.59375 -29.734375 C 40.53125 -27.253906 41 -24.367188 41 -21.078125 L 41 -1.640625 C 41 -0.546875 40.453125 0 39.359375 0 L 30.296875 0 C 29.203125 0 28.65625 -0.546875 28.65625 -1.640625 L 28.65625 -21.078125 C 28.65625 -23.222656 28.222656 -24.867188 27.359375 -26.015625 C 26.492188 -27.171875 25.085938 -27.75 23.140625 -27.75 C 21.378906 -27.75 19.859375 -27.101562 18.578125 -25.8125 C 17.304688 -24.519531 16.546875 -22.738281 16.296875 -20.46875 L 16.296875 -1.640625 C 16.296875 -0.546875 15.75 0 14.65625 0 L 5.59375 0 C 4.5 0 3.953125 -0.546875 3.953125 -1.640625 L 3.953125 -37.140625 C 6.390625 -36.640625 8.476562 -35.785156 10.21875 -34.578125 C 11.96875 -33.367188 13.351562 -31.847656 14.375 -30.015625 C 16.238281 -32.785156 18.265625 -34.742188 20.453125 -35.890625 C 22.648438 -37.046875 24.945312 -37.625 27.34375 -37.625 Z M 27.34375 -37.625 "/></g></g></g><g fill="#ffffff" fill-opacity="1"><g transform="translate(244.438098, 205.766955)"><g><path d="M 32.9375 -32.859375 L 32.9375 -61.75 C 36.945312 -60.925781 40.003906 -59.175781 42.109375 -56.5 C 44.222656 -53.832031 45.28125 -50.367188 45.28125 -46.109375 L 45.28125 0.828125 C 40.238281 0.828125 36.710938 -1.269531 34.703125 -5.46875 C 33.109375 -3.332031 31.097656 -1.664062 28.671875 -0.46875 C 26.242188 0.71875 23.519531 1.3125 20.5 1.3125 C 17.84375 1.3125 15.398438 0.84375 13.171875 -0.09375 C 10.953125 -1.039062 9.035156 -2.378906 7.421875 -4.109375 C 5.816406 -5.847656 4.578125 -7.910156 3.703125 -10.296875 C 2.828125 -12.679688 2.390625 -15.316406 2.390625 -18.203125 C 2.390625 -21.054688 2.828125 -23.671875 3.703125 -26.046875 C 4.578125 -28.421875 5.816406 -30.472656 7.421875 -32.203125 C 9.035156 -33.929688 10.953125 -35.265625 13.171875 -36.203125 C 15.398438 -37.148438 17.84375 -37.625 20.5 -37.625 C 23.03125 -37.625 25.34375 -37.210938 27.4375 -36.390625 C 29.539062 -35.566406 31.375 -34.390625 32.9375 -32.859375 Z M 24.296875 -8.5625 C 25.960938 -8.5625 27.445312 -8.96875 28.75 -9.78125 C 30.0625 -10.59375 31.085938 -11.71875 31.828125 -13.15625 C 32.566406 -14.59375 32.9375 -16.242188 32.9375 -18.109375 C 32.9375 -19.984375 32.566406 -21.640625 31.828125 -23.078125 C 31.085938 -24.515625 30.0625 -25.640625 28.75 -26.453125 C 27.445312 -27.265625 25.960938 -27.671875 24.296875 -27.671875 C 22.617188 -27.671875 21.128906 -27.265625 19.828125 -26.453125 C 18.523438 -25.640625 17.5 -24.515625 16.75 -23.078125 C 16.007812 -21.640625 15.640625 -19.984375 15.640625 -18.109375 C 15.640625 -16.242188 16.007812 -14.59375 16.75 -13.15625 C 17.5 -11.71875 18.523438 -10.59375 19.828125 -9.78125 C 21.128906 -8.96875 22.617188 -8.5625 24.296875 -8.5625 Z M 24.296875 -8.5625 "/></g></g></g><g fill="#ffffff" fill-opacity="1"><g transform="translate(293.767554, 205.766955)"><g/></g></g></svg>